<svg xmlns="http://www.w3.org/2000/svg" aria-hidden="true" style="position:absolute;width:0;height:0;overflow:hidden">
  <defs>
    <symbol id="icon-arrow" viewBox="0 0 34 32">
      <path d="M26.061 15.101 9.961 2.526c-.042-.033-.093-.054-.146-.059s-.107.004-.155.027-.089.06-.117.106-.043.098-.043.152v2.761c0 .175.082.343.218.45l12.857 10.039L9.718 26.041a.568.568 0 0 0-.218.45v2.761c0 .239.275.371.461.225l16.1-12.575a1.151 1.151 0 0 0 .44-.9 1.143 1.143 0 0 0-.44-.9z"/>
    </symbol>
    <symbol id="icon-download-app" viewBox="0 0 364 32">
      <path d="M28.257 15.618c0 5.323-1.631 9.329-4.888 12.02-3.017 2.483-7.304 3.726-12.857 3.726-2.754 0-5.11-.118-7.082-.353V1.929c2.573-.407 5.345-.615 8.339-.615 5.29 0 9.277 1.126 11.966 3.378 3.012 2.546 4.523 6.186 4.523 10.925zm-5.105.131c0-3.45-.933-6.096-2.8-7.941-1.866-1.84-4.592-2.763-8.182-2.763-1.525 0-2.823.099-3.899.308v22.109c.596.09 1.686.131 3.271.131 3.705 0 6.565-1.008 8.579-3.025s3.031-4.956 3.031-8.818zM55.322 20.254c0 3.279-.956 5.965-2.869 8.072-2.005 2.166-4.662 3.247-7.979 3.247-3.197 0-5.743-1.036-7.641-3.116-1.894-2.076-2.841-4.694-2.841-7.85 0-3.301.975-6.01 2.934-8.113s4.592-3.156 7.909-3.156c3.197 0 5.766 1.036 7.711 3.111 1.848 2.017 2.776 4.622 2.776 7.805zm-5.021.154c0-1.967-.434-3.654-1.298-5.06-1.016-1.7-2.462-2.55-4.343-2.55-1.945 0-3.423.85-4.44 2.55-.869 1.406-1.298 3.12-1.298 5.146 0 1.967.434 3.654 1.298 5.06 1.049 1.7 2.508 2.55 4.394 2.55 1.848 0 3.298-.864 4.343-2.596.896-1.434 1.344-3.134 1.344-5.101zM91.625 9.78l-6.814 21.317h-4.435l-2.823-9.257a68.185 68.185 0 0 1-1.751-6.887h-.088a49.561 49.561 0 0 1-1.751 6.887l-2.998 9.257h-4.486L60.071 9.78h4.976l2.462 10.134c.596 2.397 1.086 4.68 1.478 6.842h.088c.36-1.782.956-4.052 1.797-6.797l3.091-10.175h3.946l2.962 9.958a80.118 80.118 0 0 1 1.746 7.018h.134c.328-2.193.822-4.531 1.478-7.018l2.643-9.958 4.754-.005zM116.722 31.103h-4.842v-12.21c0-3.762-1.46-5.644-4.389-5.644-1.437 0-2.596.516-3.498 1.551-.892 1.036-1.344 2.257-1.344 3.654v12.644h-4.842V15.877c0-1.872-.06-3.903-.176-6.1h4.255l.226 3.333h.134c.564-1.036 1.405-1.89 2.509-2.573 1.312-.796 2.781-1.198 4.389-1.198 2.033 0 3.724.642 5.068 1.931 1.672 1.578 2.508 3.934 2.508 7.064v12.77zM130.072 31.099h-4.837V0h4.837v31.099zM158.58 20.254c0 3.279-.956 5.965-2.869 8.072-2.005 2.166-4.666 3.247-7.979 3.247-3.202 0-5.747-1.036-7.642-3.116-1.894-2.076-2.841-4.694-2.841-7.85 0-3.301.975-6.01 2.934-8.113s4.592-3.156 7.905-3.156c3.202 0 5.766 1.036 7.715 3.111 1.848 2.017 2.777 4.622 2.777 7.805zm-5.026.154c0-1.967-.434-3.654-1.298-5.06-1.012-1.7-2.462-2.55-4.338-2.55-1.95 0-3.428.85-4.44 2.55-.868 1.406-1.298 3.12-1.298 5.146 0 1.967.434 3.654 1.298 5.06 1.049 1.7 2.509 2.55 4.394 2.55 1.848 0 3.294-.864 4.338-2.596.901-1.434 1.344-3.134 1.344-5.101zM182.012 31.089h-4.347l-.36-2.455h-.134c-1.488 1.958-3.608 2.939-6.362 2.939-2.056 0-3.719-.647-4.971-1.931-1.136-1.167-1.705-2.618-1.705-4.341 0-2.605 1.109-4.59 3.34-5.965 2.227-1.375 5.359-2.049 9.392-2.017v-.398c0-2.808-1.506-4.21-4.523-4.21-2.148 0-4.042.529-5.678 1.578l-.984-3.111c2.024-1.226 4.523-1.841 7.471-1.841 5.692 0 8.547 2.939 8.547 8.818v7.85c0 2.13.106 3.826.314 5.083zm-5.026-7.326v-3.288c-5.341-.09-8.011 1.343-8.011 4.296 0 1.112.305 1.945.929 2.501s1.418.832 2.365.832c1.063 0 2.056-.33 2.962-.986.91-.66 1.469-1.497 1.677-2.523.051-.231.078-.511.078-.832zM209.516 31.099h-4.296l-.226-3.423h-.134c-1.372 2.605-3.71 3.907-6.995 3.907-2.624 0-4.809-1.008-6.542-3.025s-2.596-4.635-2.596-7.85c0-3.45.938-6.245 2.823-8.379 1.825-1.99 4.061-2.985 6.722-2.985 2.925 0 4.971.963 6.136 2.894h.092V.001h4.846v25.356c0 2.076.055 3.989.171 5.743zm-5.017-8.99v-3.554c0-.615-.046-1.112-.134-1.492a5.38 5.38 0 0 0-1.751-2.872c-.901-.773-1.986-1.162-3.238-1.162-1.806 0-3.22.701-4.26 2.107-1.03 1.406-1.552 3.202-1.552 5.395 0 2.107.494 3.817 1.488 5.133 1.049 1.402 2.462 2.103 4.232 2.103 1.589 0 2.86-.583 3.825-1.755.933-1.081 1.391-2.383 1.391-3.903zM250.932 20.254c0 3.279-.956 5.965-2.869 8.072-2.005 2.166-4.657 3.247-7.978 3.247-3.192 0-5.738-1.036-7.642-3.116-1.894-2.076-2.841-4.694-2.841-7.85 0-3.301.975-6.01 2.934-8.113s4.592-3.156 7.914-3.156c3.192 0 5.766 1.036 7.706 3.111 1.848 2.017 2.777 4.622 2.777 7.805zm-5.017.154c0-1.967-.434-3.654-1.298-5.06-1.021-1.7-2.462-2.55-4.347-2.55-1.94 0-3.419.85-4.44 2.55-.868 1.406-1.298 3.12-1.298 5.146 0 1.967.434 3.654 1.298 5.06 1.049 1.7 2.509 2.55 4.394 2.55 1.848 0 3.303-.864 4.348-2.596.892-1.434 1.344-3.134 1.344-5.101zM276.96 31.103h-4.837v-12.21c0-3.762-1.46-5.644-4.393-5.644-1.437 0-2.597.516-3.493 1.551s-1.344 2.257-1.344 3.654v12.644h-4.846V15.877c0-1.872-.056-3.903-.171-6.1h4.25l.226 3.333h.134c.568-1.036 1.409-1.89 2.509-2.573 1.317-.796 2.781-1.198 4.394-1.198 2.028 0 3.719.642 5.064 1.931 1.677 1.578 2.508 3.934 2.508 7.064v12.77zM309.553 13.321h-5.331v10.356c0 2.632.947 3.948 2.823 3.948.868 0 1.589-.072 2.158-.222l.125 3.595c-.956.353-2.213.529-3.761.529-1.913 0-3.4-.57-4.477-1.709-1.081-1.14-1.617-3.057-1.617-5.748V13.321h-3.183v-3.55h3.183V5.864l4.745-1.402v5.304h5.332v3.554h.004zM335.18 31.099h-4.846V18.98c0-3.821-1.46-5.734-4.384-5.734-2.246 0-3.779 1.108-4.62 3.324-.143.466-.226 1.036-.226 1.705v12.82h-4.837V.001h4.837v12.847h.092c1.524-2.338 3.71-3.505 6.542-3.505 2.005 0 3.664.642 4.98 1.931 1.64 1.605 2.462 3.993 2.462 7.149v12.676zM361.62 19.432c0 .85-.064 1.565-.18 2.148h-14.521c.065 2.107.758 3.713 2.102 4.825 1.229.995 2.814 1.492 4.754 1.492 2.148 0 4.107-.335 5.872-1.008l.758 3.292c-2.065.877-4.495 1.316-7.309 1.316-3.373 0-6.029-.972-7.951-2.917-1.931-1.945-2.887-4.554-2.887-7.828 0-3.215.892-5.892 2.689-8.027 1.876-2.279 4.412-3.419 7.614-3.419 3.132 0 5.512 1.14 7.119 3.419 1.298 1.809 1.94 4.047 1.94 6.706zM357 18.206c.037-1.406-.282-2.618-.938-3.64-.841-1.316-2.121-1.976-3.853-1.976-1.58 0-2.869.642-3.853 1.931-.804 1.027-1.28 2.252-1.437 3.686H357z"/>
    </symbol>
    <symbol id="icon-app-store-text" viewBox="0 0 142 32">
      <path d="M20.375 24.696h-3.997l-2.189-6.734h-7.61l-2.086 6.734H.602L8.142 1.77h4.657l7.577 22.926zm-6.847-9.559-1.98-5.986c-.209-.612-.602-2.052-1.181-4.319h-.07a167.4 167.4 0 0 1-1.112 4.319L7.24 15.137h6.288zM39.764 16.226c0 2.811-.776 5.034-2.329 6.665-1.39 1.452-3.117 2.178-5.178 2.178-2.225 0-3.823-.782-4.796-2.346h-.07v8.708h-3.752V13.606c0-1.768-.048-3.582-.139-5.442h3.3l.209 2.62h.07c1.251-1.974 3.15-2.96 5.699-2.96 1.992 0 3.655.77 4.986 2.312 1.334 1.544 1.999 3.573 1.999 6.09zm-3.823.135c0-1.609-.37-2.936-1.112-3.979-.811-1.089-1.901-1.633-3.267-1.633-.926 0-1.767.303-2.519.901-.753.603-1.246 1.39-1.477 2.365-.116.455-.174.827-.174 1.12v2.756c0 1.202.377 2.217 1.13 3.046s1.732 1.242 2.936 1.242c1.413 0 2.513-.534 3.3-1.599.788-1.066 1.183-2.472 1.183-4.219zM59.191 16.226c0 2.811-.776 5.034-2.33 6.665-1.389 1.452-3.115 2.178-5.176 2.178-2.225 0-3.823-.782-4.794-2.346h-.07v8.708h-3.752V13.606c0-1.768-.048-3.582-.139-5.442h3.3l.209 2.62h.07c1.25-1.974 3.149-2.96 5.699-2.96 1.991 0 3.654.77 4.988 2.312 1.329 1.544 1.996 3.573 1.996 6.09zm-3.823.135c0-1.609-.371-2.936-1.114-3.979-.811-1.089-1.897-1.633-3.265-1.633-.927 0-1.767.303-2.52.901-.753.603-1.244 1.39-1.475 2.365-.114.455-.174.827-.174 1.12v2.756c0 1.202.377 2.217 1.126 3.046.753.827 1.732 1.242 2.939 1.242 1.413 0 2.513-.534 3.3-1.599.788-1.066 1.183-2.472 1.183-4.219zM80.909 18.265c0 1.95-.692 3.537-2.08 4.761-1.526 1.339-3.65 2.007-6.38 2.007-2.52 0-4.541-.475-6.07-1.428l.87-3.061c1.647.975 3.455 1.464 5.424 1.464 1.413 0 2.513-.314 3.303-.937.787-.624 1.179-1.461 1.179-2.505 0-.93-.324-1.714-.973-2.35-.646-.636-1.725-1.227-3.231-1.773-4.101-1.497-6.149-3.69-6.149-6.574 0-1.885.718-3.43 2.156-4.632 1.433-1.204 3.344-1.805 5.734-1.805 2.131 0 3.902.363 5.315 1.089l-.938 2.994c-1.32-.703-2.812-1.054-4.483-1.054-1.32 0-2.351.319-3.091.953-.625.567-.938 1.258-.938 2.076 0 .906.357 1.656 1.075 2.245.625.544 1.76 1.134 3.407 1.769 2.015.794 3.495 1.723 4.447 2.787.949 1.061 1.422 2.389 1.422 3.974zM93.315 10.921h-4.136v8.026c0 2.041.729 3.061 2.189 3.061.671 0 1.227-.057 1.667-.171l.104 2.789c-.739.27-1.713.407-2.918.407-1.482 0-2.64-.443-3.476-1.326-.832-.886-1.251-2.37-1.251-4.457v-8.333H83.03V8.161h2.464V5.134l3.685-1.089v4.116h4.136v2.76zM111.977 16.292c0 2.541-.743 4.627-2.225 6.259-1.554 1.68-3.617 2.517-6.188 2.517-2.478 0-4.451-.805-5.922-2.414s-2.207-3.64-2.207-6.088c0-2.562.757-4.66 2.276-6.291 1.515-1.633 3.561-2.45 6.132-2.45 2.478 0 4.472.804 5.977 2.415 1.44 1.563 2.158 3.58 2.158 6.052zm-3.893.119c0-1.525-.333-2.832-1.007-3.923-.787-1.32-1.911-1.978-3.369-1.978-1.508 0-2.654.66-3.441 1.978-.674 1.092-1.007 2.42-1.007 3.992 0 1.525.333 2.832 1.007 3.921.811 1.32 1.945 1.978 3.407 1.978 1.433 0 2.557-.672 3.369-2.012.692-1.111 1.04-2.432 1.04-3.955zM124.173 11.394a6.664 6.664 0 0 0-1.183-.102c-1.32 0-2.341.488-3.059 1.464-.625.861-.938 1.95-.938 3.265v8.674h-3.751l.035-11.325c0-1.905-.048-3.64-.141-5.204h3.268l.137 3.163h.104c.396-1.087 1.021-1.962 1.876-2.619.836-.591 1.739-.885 2.712-.885.347 0 .66.024.938.067v3.502zM140.953 15.644c0 .658-.044 1.213-.137 1.666h-11.257c.044 1.633.588 2.882 1.633 3.743.949.77 2.175 1.156 3.682 1.156 1.667 0 3.187-.26 4.555-.782l.588 2.55c-1.598.682-3.485 1.022-5.662 1.022-2.619 0-4.675-.754-6.171-2.262-1.492-1.507-2.24-3.531-2.24-6.071 0-2.493.695-4.569 2.087-6.224 1.457-1.768 3.427-2.651 5.905-2.651 2.434 0 4.277.884 5.528 2.651.991 1.404 1.489 3.14 1.489 5.202zm-3.578-.953c.025-1.089-.22-2.029-.729-2.824-.649-1.022-1.647-1.531-2.99-1.531-1.227 0-2.225.498-2.987 1.497-.625.794-.996 1.747-1.111 2.856l7.816.002z"/>
    </symbol>
    <symbol id="icon-app-store" viewBox="0 0 37 32">
      <path d="M19.969 19.761H2.249c-1.243 0-2.248.984-2.248 2.201s1.005 2.2 2.248 2.2h20.418s1.058-1.035-.079-2.718c-1.164-1.683-2.618-1.683-2.618-1.683z"/>
      <path d="M19.07 1.248 8.067 19.888c-.608 1.061-.264 2.408.82 3.003s2.46.259 3.068-.802l11.003-18.64c.608-1.061.265-2.408-.82-3.003-1.084-.621-2.46-.259-3.068.803zM32.533 27.892 21.239 8.709s-1.64 1.243-1.64 3.702 1.031 4.116 1.031 4.116l8.014 13.591c.608 1.061 1.984 1.424 3.068.802a2.228 2.228 0 0 0 .82-3.029z"/>
      <path d="M33.669 19.761h-6.268c-1.243 0-2.248.984-2.248 2.201s1.005 2.2 2.248 2.2h6.268c1.243 0 2.248-.984 2.248-2.2 0-1.191-1.005-2.201-2.248-2.201zM19.203 5.29l-2.38-4.064C16.215.19 14.813-.172 13.755.423s-1.428 1.968-.82 3.003l2.38 4.064c.608 1.036 2.01 1.398 3.068.803s1.428-1.942.82-3.003zM3.359 27.863l1.428-2.408s.344-.673 1.693-.673c1.428 0 2.804 1.165 2.909 1.605l-2.142 3.676c-.608 1.061-1.984 1.424-3.068.803-1.084-.595-1.428-1.942-.82-3.003z"/>
    </symbol>
    <symbol id="icon-google-play-text" viewBox="0 0 149 32">
      <path d="M48.23 9.023c-1.466.007-2.898.469-4.114 1.328s-2.162 2.075-2.718 3.496c-.556 1.421-.698 2.983-.408 4.488s1 2.887 2.039 3.97c1.039 1.083 2.362 1.82 3.8 2.117s2.929.141 4.283-.448c1.354-.589 2.511-1.586 3.325-2.863s1.248-2.779 1.248-4.314c.014-1.028-.169-2.048-.539-3.001s-.919-1.817-1.615-2.542c-.696-.725-1.524-1.296-2.434-1.68s-1.886-.57-2.867-.551zm0 12.491c-.902.066-1.802-.154-2.583-.63s-1.407-1.188-1.797-2.043c-.39-.854-.525-1.812-.388-2.747s.539-1.807 1.155-2.5c.616-.693 1.416-1.176 2.298-1.387s1.803-.138 2.644.207c.842.345 1.565.948 2.075 1.729s.784 1.706.787 2.652c.028.6-.059 1.2-.255 1.764s-.499 1.081-.89 1.521-.861.793-1.384 1.039a4.138 4.138 0 0 1-1.661.394zM31.973 9.023c-1.467.004-2.9.463-4.118 1.319s-2.167 2.071-2.726 3.492c-.559 1.421-.704 2.983-.415 4.489s.996 2.89 2.035 3.975c1.039 1.085 2.361 1.824 3.8 2.122s2.93.144 4.285-.445 2.513-1.585 3.328-2.863 1.25-2.78 1.25-4.316c.014-1.028-.169-2.048-.539-3.001s-.919-1.817-1.615-2.542c-.696-.725-1.524-1.296-2.434-1.68s-1.886-.57-2.867-.551h.018zm0 12.491c-.902.07-1.804-.147-2.587-.621s-1.412-1.184-1.804-2.038c-.392-.854-.53-1.811-.396-2.748s.535-1.81 1.15-2.505c.615-.695 1.415-1.18 2.297-1.392s1.804-.141 2.647.204c.843.345 1.567.947 2.078 1.729s.786 1.707.789 2.654c.028.6-.059 1.2-.255 1.764s-.499 1.081-.89 1.521-.861.793-1.384 1.039a4.138 4.138 0 0 1-1.661.394h.018zM12.607 11.419v3.292h7.544a7.055 7.055 0 0 1-1.746 4.152c-.755.805-1.662 1.436-2.663 1.852s-2.075.607-3.151.562c-2.223 0-4.355-.925-5.927-2.571s-2.455-3.879-2.455-6.207.883-4.561 2.455-6.207 3.704-2.571 5.927-2.571c2.127-.036 4.18.812 5.71 2.359l2.218-2.323c-1.033-1.095-2.265-1.963-3.624-2.55s-2.816-.883-4.286-.87c-1.552-.063-3.101.202-4.553.781S5.278 2.576 4.159 3.704c-1.12 1.128-2.01 2.481-2.619 3.978S.618 10.79.618 12.417c0 1.627.314 3.238.922 4.735s1.499 2.85 2.619 3.978c1.12 1.128 2.445 2.007 3.897 2.586s3.001.844 4.553.781c1.495.071 2.986-.195 4.375-.778s2.642-1.472 3.675-2.605c1.829-2.105 2.806-4.873 2.724-7.718a11.189 11.189 0 0 0-.175-2.067l-10.599.091zm79.121 2.56c-.455-1.403-1.307-2.629-2.442-3.514s-2.5-1.388-3.914-1.443c-.955-.002-1.901.201-2.778.597s-1.668.976-2.322 1.705-1.16 1.59-1.484 2.531a7.633 7.633 0 0 0-.401 2.94c-.021 1.022.154 2.038.517 2.988s.903 1.813 1.591 2.538 1.508 1.298 2.412 1.684a6.977 6.977 0 0 0 2.849.562c1.222.007 2.425-.304 3.504-.904s1.999-1.471 2.677-2.535l-2.532-1.829c-.378.66-.913 1.206-1.553 1.584s-1.362.576-2.097.574c-.756.03-1.504-.179-2.146-.599s-1.147-1.034-1.452-1.76l9.936-4.298-.367-.823zM81.6 16.576c-.035-.566.037-1.133.214-1.669s.454-1.03.815-1.452c.361-.422.799-.765 1.288-1.008s1.019-.381 1.56-.407c.563-.039 1.125.096 1.616.389s.888.73 1.143 1.257l-6.636 2.89zm-8.068 7.535h3.265V1.25h-3.265v22.861zm-5.343-13.35h-.122c-.492-.576-1.095-1.037-1.769-1.352s-1.404-.478-2.142-.477c-1.908.097-3.708.959-5.026 2.408s-2.053 3.373-2.053 5.374c0 2.001.735 3.925 2.053 5.374s3.117 2.311 5.026 2.408c.74.013 1.474-.144 2.15-.46s1.277-.783 1.762-1.369h.105v1.116c0 2.981-1.519 4.572-3.964 4.572-.814-.02-1.604-.293-2.27-.785s-1.176-1.18-1.467-1.977l-2.846 1.244c.536 1.365 1.449 2.531 2.622 3.349s2.552 1.25 3.961 1.241c3.824 0 6.985-2.359 6.985-8.102V9.48h-3.003v1.28zm-3.737 10.753c-1.126-.104-2.175-.646-2.938-1.52s-1.187-2.015-1.187-3.199.424-2.326 1.187-3.199a4.453 4.453 0 0 1 2.938-1.52c.558.03 1.106.177 1.609.432s.953.613 1.323 1.052c.369.44.651.952.828 1.508s.247 1.142.204 1.727c.048.587-.019 1.177-.195 1.736s-.459 1.074-.832 1.515c-.372.441-.826.798-1.334 1.051s-1.059.394-1.621.416h.018zM107.024 1.25h-7.806v22.861h3.265v-8.669h4.558c.931.07 1.865-.062 2.745-.386s1.687-.836 2.37-1.502 1.228-1.472 1.6-2.368c.373-.896.565-1.863.565-2.84s-.192-1.944-.565-2.84c-.372-.896-.917-1.702-1.6-2.368s-1.49-1.177-2.37-1.502a6.506 6.506 0 0 0-2.745-.386h-.017zm0 10.974h-4.558V4.433h4.627c.993 0 1.946.413 2.649 1.149s1.097 1.734 1.097 2.774-.395 2.038-1.097 2.774a3.66 3.66 0 0 1-2.649 1.149l-.07-.055zm20.134-3.292c-1.189-.074-2.372.217-3.405.837s-1.87 1.544-2.409 2.656l2.899 1.262c.286-.552.718-1.004 1.246-1.303s1.126-.431 1.723-.379c.414-.051.835-.014 1.236.107s.775.325 1.1.599c.325.274.595.613.793.998s.322.806.363 1.241v.238a6.95 6.95 0 0 0-3.405-.878c-3.126 0-6.286 1.829-6.286 5.139.031.706.197 1.398.487 2.036s.701 1.208 1.205 1.677 1.094.827 1.733 1.053a4.84 4.84 0 0 0 1.988.264c.822.062 1.645-.109 2.383-.496s1.362-.973 1.808-1.699h.105v1.829h3.143v-8.797c0-4.005-2.899-6.328-6.618-6.328l-.087-.055zm-.401 12.527c-1.065 0-2.549-.567-2.549-1.939 0-1.829 1.851-2.432 3.492-2.432a5.59 5.59 0 0 1 2.969.768c-.109.99-.556 1.906-1.259 2.578s-1.614 1.056-2.565 1.08l-.087-.055zM145.319 9.48l-3.737 9.913h-.105L137.6 9.48h-3.492l5.815 13.863-3.318 7.7h3.405l8.94-21.563h-3.632zm-29.354 14.631h3.265V1.25h-3.265v22.861z"/>
    </symbol>
    <symbol id="icon-download-google" viewBox="0 0 184 32">
      <path d="M31.345 16.736c.078 1.761-.187 3.52-.778 5.171s-1.496 3.158-2.66 4.431c-1.3 1.414-2.87 2.526-4.607 3.262s-3.604 1.081-5.477 1.011c-2.842-.023-5.614-.925-7.969-2.591s-4.188-4.023-5.27-6.776c-1.082-2.753-1.364-5.778-.81-8.698s1.917-5.604 3.92-7.715c1.316-1.408 2.895-2.517 4.637-3.261S15.943.466 17.824.51a13.663 13.663 0 0 1 5.638 1.2 11.35 11.35 0 0 1 4.309 3.217l-2.429 2.544c-.915-1.14-2.07-2.041-3.375-2.633s-2.723-.857-4.142-.776c-1.432-.007-2.85.288-4.17.869s-2.515 1.435-3.512 2.511c-.997 1.076-1.777 2.352-2.292 3.751s-.755 2.893-.706 4.392c-.03 2.238.573 4.435 1.734 6.314s2.827 3.356 4.788 4.244c1.961.888 4.13 1.149 6.232.748s4.044-1.445 5.581-3a9.307 9.307 0 0 0 2.292-5.857h-9.947v-3.457h13.339c.122.713.184 1.436.183 2.16zM52.339 4.733H39.963v9.122h11.276v3.457H39.963v9.122h12.376v3.553H36.296V1.182h16.043v3.553zm15.035 25.253h-3.53V4.734h-7.701V1.181h19.114v3.553h-7.884v25.252zm21.36 0V1.181h3.53v28.805h-3.53zm19.206 0h-3.53V4.734h-7.701V1.181h18.885v3.553h-7.655v25.252zm43.455-3.745c-2.68 2.791-6.305 4.358-10.084 4.358s-7.405-1.567-10.084-4.358c-2.604-2.888-4.056-6.709-4.056-10.682s1.451-7.794 4.056-10.682c1.321-1.393 2.892-2.499 4.623-3.254S139.437.48 141.312.48s3.731.389 5.462 1.143a14.202 14.202 0 0 1 4.623 3.254c2.615 2.882 4.073 6.706 4.073 10.682s-1.458 7.8-4.073 10.682zm-17.556-2.4c1.984 2.07 4.671 3.232 7.472 3.232s5.487-1.162 7.472-3.232c1.958-2.261 3.043-5.205 3.043-8.257s-1.085-5.996-3.043-8.257c-1.984-2.07-4.671-3.232-7.472-3.232s-5.487 1.162-7.472 3.232c-1.958 2.261-3.043 5.205-3.043 8.257s1.085 5.996 3.043 8.257zm26.586 6.145V1.181h4.309l13.384 22.42V1.181h3.53v28.805h-3.667L164 6.51v23.476h-3.575z"/>
      <path d="M141.31.96c-1.814 0-3.611.376-5.286 1.106a13.742 13.742 0 0 0-4.47 3.145c-2.522 2.798-3.926 6.5-3.926 10.348s1.404 7.549 3.926 10.347c2.593 2.698 6.1 4.213 9.756 4.213s7.163-1.515 9.756-4.213c2.531-2.792 3.942-6.496 3.942-10.346s-1.412-7.555-3.943-10.347a13.744 13.744 0 0 0-4.47-3.146 13.22 13.22 0 0 0-5.286-1.106zm-5.638.22C137.459.401 139.375 0 141.31 0s3.851.401 5.638 1.18a14.666 14.666 0 0 1 4.772 3.359l.007.007c2.696 2.971 4.199 6.914 4.199 11.013s-1.503 8.041-4.199 11.013l-.009.01c-2.766 2.88-6.507 4.497-10.408 4.497s-7.642-1.617-10.408-4.497l-.01-.011c-2.685-2.977-4.181-6.917-4.181-11.012s1.496-8.035 4.181-11.012l.008-.009a14.645 14.645 0 0 1 4.772-3.359zM17.813.989c-1.818-.042-3.625.306-5.31 1.025S9.293 3.805 8.02 5.166l-.002.002c-1.939 2.045-3.26 4.643-3.795 7.47s-.263 5.757.785 8.422c1.047 2.665 2.822 4.948 5.103 6.561s4.965 2.486 7.716 2.509h.013c1.809.067 3.611-.265 5.289-.976s3.193-1.784 4.449-3.149c1.121-1.226 1.993-2.678 2.562-4.267s.824-3.284.749-4.98l.458-.022h-.458c0-.562-.038-1.124-.115-1.68h-12.49v2.496h9.962l-.015.496c-.072 2.292-.928 4.481-2.413 6.167l-.018.02c-1.602 1.621-3.626 2.709-5.818 3.127s-4.452.147-6.496-.779c-2.044-.926-3.781-2.466-4.991-4.424a12.223 12.223 0 0 1-1.808-6.57c-.05-1.559.201-3.113.737-4.569.537-1.459 1.351-2.79 2.391-3.913s2.286-2.013 3.663-2.619a10.655 10.655 0 0 1 4.336-.906 9.234 9.234 0 0 1 4.336.816 9.646 9.646 0 0 1 3.213 2.373L27.14 4.91a10.867 10.867 0 0 0-3.848-2.755l-.009-.004A13.223 13.223 0 0 0 17.827.989h-.012zm13.991 15.736a14.066 14.066 0 0 1-.807 5.35 13.607 13.607 0 0 1-2.758 4.595 13.793 13.793 0 0 1-4.767 3.375 13.242 13.242 0 0 1-5.659 1.046 14.427 14.427 0 0 1-8.216-2.673c-2.43-1.719-4.321-4.151-5.437-6.991s-1.407-5.962-.836-8.974c.571-3.012 1.977-5.781 4.043-7.959a14.193 14.193 0 0 1 4.791-3.368A13.655 13.655 0 0 1 17.828.03a14.105 14.105 0 0 1 5.81 1.237 11.803 11.803 0 0 1 4.479 3.345l.281.338-3.085 3.231-.322-.401c-.869-1.083-1.967-1.939-3.206-2.501s-2.587-.814-3.935-.737l-.027.002c-1.37-.007-2.727.275-3.991.831s-2.406 1.373-3.361 2.402c-.954 1.03-1.7 2.25-2.193 3.589s-.723 2.768-.675 4.202l.001.023c-.029 2.143.549 4.247 1.66 6.046s2.707 3.214 4.585 4.065a9.927 9.927 0 0 0 5.968.716 10.206 10.206 0 0 0 5.335-2.864 8.798 8.798 0 0 0 2.133-5.041h-9.918v-4.417h14.181l.068.395c.126.737.19 1.485.191 2.234zM35.838.701h16.96v4.513H40.422v8.161h11.276v4.417H40.422v8.161h12.376v4.513h-16.96V.701zm.916.96v27.845H51.88v-2.592H39.504V16.832H50.78v-2.496H39.504V4.254H51.88V1.662H36.754zm18.931-.96h20.031v4.513h-7.884v25.252h-4.446V5.214h-7.701V.701zm.917.96v2.592h7.701v25.252h2.613V4.253H74.8V1.661H56.602zm31.674-.96h4.446v29.765h-4.446V.701zm.917.96v27.845h2.613V1.661h-2.613zm7.059-.96h19.802v4.513h-7.655v25.252h-4.446V5.214h-7.7V.701zm.916.96v2.592h7.701v25.252h2.613V4.253h7.655V1.661H97.169zm62.798-.96h5.021l12.672 21.227V.701h4.446v29.765h-4.38L164.457 8.187v22.279h-4.492V.701zm.917.96v27.845h2.658V4.833l14.693 24.673h2.954V1.661h-2.613v23.613L164.478 1.661h-3.596zm-27.368 5.325c2.07-2.159 4.873-3.372 7.795-3.372s5.725 1.212 7.795 3.372l.017.017c2.035 2.349 3.162 5.408 3.162 8.58s-1.127 6.231-3.162 8.58l-.016.018c-2.07 2.159-4.874 3.371-7.795 3.371s-5.725-1.212-7.795-3.372l.324-.34-.34.323c-2.035-2.349-3.162-5.408-3.162-8.58s1.127-6.231 3.162-8.58l.016-.018zm.655 16.523c1.898 1.975 4.464 3.083 7.14 3.083s5.242-1.108 7.14-3.083c1.877-2.172 2.917-4.996 2.917-7.926s-1.04-5.754-2.917-7.926c-1.898-1.975-4.464-3.083-7.14-3.083s-5.242 1.108-7.14 3.083c-1.877 2.172-2.916 4.996-2.916 7.926s1.04 5.754 2.916 7.926z"/>
    </symbol>
    <symbol id="icon-google-play" viewBox="0 0 27 32">
      <path d="m.595 31.065 14.038-15.25L.606.592c-.375.237-.607.786-.607 1.504v27.48c.005.718.229 1.227.595 1.489zM15.137 15.392l4.182-4.543L2.29.705a1.766 1.766 0 0 0-.944-.277l13.791 14.964zM15.136 16.237 1.302 31.265c.347.006.689-.092.988-.284L19.353 20.81l-4.217-4.572zM25.488 14.526l-5.667-3.382-4.296 4.667 4.328 4.696 5.633-3.373c1.198-.716 1.198-1.896.002-2.609z"/>
    </symbol>
    <symbol id="icon-check" viewBox="0 0 45 32">
      <path stroke-linecap="square" stroke-linejoin="bevel" stroke-width="6.564" d="M39.932 4.923 15.864 28.991l-10.94-10.94"/>
    </symbol>
    <symbol id="icon-cross" viewBox="0 0 32 32">
      <path stroke-linecap="square" stroke-linejoin="bevel" stroke-width="5.818" d="M27.636 4.364 4.363 27.637M4.364 4.364l23.273 23.273"/>
    </symbol>
    <symbol id="icon-mask" viewBox="0 0 31 32">
      <path d="M15.556 1.172c4.689-.32 9.975.389 12.727 4.191 2.666 3.684.824 8.555-.319 12.954-1.081 4.158-2.109 8.638-5.846 10.771-4.007 2.288-9.032 2.138-13.164.084-4.067-2.022-6.826-5.975-7.651-10.434-.785-4.239.821-8.423 3.539-11.773 2.689-3.314 6.451-5.501 10.715-5.793z"/>
    </symbol>
    <symbol id="icon-logo" viewBox="0 0 149 32">
      <path d="M0 31.151h27.022v-6.026H8.334V.849H0v30.302z"/>
      <path d="M0 31.151h27.022v-6.026H8.334V.849H0v30.302z"/>
      <path d="M0 31.151h27.022v-6.026H8.334V.849H0v30.302z"/>
      <path d="M0 31.151h27.022v-6.026H8.334V.849H0v30.302zM38.135 16c0-4.711 2.664-10.228 10.225-10.228S58.584 11.289 58.584 16c0 4.711-2.663 10.228-10.224 10.228S38.135 20.711 38.135 16zm-8.85 0c0 6.324 2.578 16 19.074 16s19.074-9.676 19.074-16S64.855 0 48.359 0 29.285 9.676 29.285 16z"/>
      <path d="M38.135 16c0-4.711 2.664-10.228 10.225-10.228S58.584 11.289 58.584 16c0 4.711-2.663 10.228-10.224 10.228S38.135 20.711 38.135 16zm-8.85 0c0 6.324 2.578 16 19.074 16s19.074-9.676 19.074-16S64.855 0 48.359 0 29.285 9.676 29.285 16z"/>
      <path d="M38.135 16c0-4.711 2.664-10.228 10.225-10.228S58.584 11.289 58.584 16c0 4.711-2.663 10.228-10.224 10.228S38.135 20.711 38.135 16zm-8.85 0c0 6.324 2.578 16 19.074 16s19.074-9.676 19.074-16S64.855 0 48.359 0 29.285 9.676 29.285 16z"/>
      <path d="M38.135 16c0-4.711 2.664-10.228 10.225-10.228S58.584 11.289 58.584 16c0 4.711-2.663 10.228-10.224 10.228S38.135 20.711 38.135 16zm-8.85 0c0 6.324 2.578 16 19.074 16s19.074-9.676 19.074-16S64.855 0 48.359 0 29.285 9.676 29.285 16zM90.99 19.523h7.432c-1.031 5.008-4.468 6.706-9.065 6.706-7.561 0-10.224-5.517-10.224-10.228S81.797 5.773 89.357 5.773c3.05 0 6.53 1.103 7.819 5.008h9.279C104.951 2.463 96.875.001 88.412.001c-11.556 0-18.129 6.663-18.129 16 0 11.247 6.96 16 18.129 16 5.37 0 9.967-1.273 12.888-4.371l1.117 3.523h4.21V14.262H90.989v5.262z"/>
      <path d="M90.99 19.523h7.432c-1.031 5.008-4.468 6.706-9.065 6.706-7.561 0-10.224-5.517-10.224-10.228S81.797 5.773 89.357 5.773c3.05 0 6.53 1.103 7.819 5.008h9.279C104.951 2.463 96.875.001 88.412.001c-11.556 0-18.129 6.663-18.129 16 0 11.247 6.96 16 18.129 16 5.37 0 9.967-1.273 12.888-4.371l1.117 3.523h4.21V14.262H90.989v5.262z"/>
      <path d="M90.99 19.523h7.432c-1.031 5.008-4.468 6.706-9.065 6.706-7.561 0-10.224-5.517-10.224-10.228S81.797 5.773 89.357 5.773c3.05 0 6.53 1.103 7.819 5.008h9.279C104.951 2.463 96.875.001 88.412.001c-11.556 0-18.129 6.663-18.129 16 0 11.247 6.96 16 18.129 16 5.37 0 9.967-1.273 12.888-4.371l1.117 3.523h4.21V14.262H90.989v5.262z"/>
      <path d="M90.99 19.523h7.432c-1.031 5.008-4.468 6.706-9.065 6.706-7.561 0-10.224-5.517-10.224-10.228S81.797 5.773 89.357 5.773c3.05 0 6.53 1.103 7.819 5.008h9.279C104.951 2.463 96.875.001 88.412.001c-11.556 0-18.129 6.663-18.129 16 0 11.247 6.96 16 18.129 16 5.37 0 9.967-1.273 12.888-4.371l1.117 3.523h4.21V14.262H90.989v5.262zM119.273 16c0-4.711 2.663-10.228 10.224-10.228S139.721 11.289 139.721 16c0 4.711-2.663 10.228-10.224 10.228S119.273 20.711 119.273 16zm-8.85 0c0 6.324 2.578 16 19.074 16s19.074-9.676 19.074-16-2.577-16-19.074-16-19.074 9.676-19.074 16z"/>
      <path d="M119.273 16c0-4.711 2.663-10.228 10.224-10.228S139.721 11.289 139.721 16c0 4.711-2.663 10.228-10.224 10.228S119.273 20.711 119.273 16zm-8.85 0c0 6.324 2.578 16 19.074 16s19.074-9.676 19.074-16-2.577-16-19.074-16-19.074 9.676-19.074 16z"/>
      <path d="M119.273 16c0-4.711 2.663-10.228 10.224-10.228S139.721 11.289 139.721 16c0 4.711-2.663 10.228-10.224 10.228S119.273 20.711 119.273 16zm-8.85 0c0 6.324 2.578 16 19.074 16s19.074-9.676 19.074-16-2.577-16-19.074-16-19.074 9.676-19.074 16z"/>
      <path d="M119.273 16c0-4.711 2.663-10.228 10.224-10.228S139.721 11.289 139.721 16c0 4.711-2.663 10.228-10.224 10.228S119.273 20.711 119.273 16zm-8.85 0c0 6.324 2.578 16 19.074 16s19.074-9.676 19.074-16-2.577-16-19.074-16-19.074 9.676-19.074 16z"/>
    </symbol>
  </defs>
</svg>
